<svg xmlns="http://www.w3.org/2000/svg" xmlns:xlink="http://www.w3.org/1999/xlink" width="500" zoomAndPan="magnify" viewBox="0 0 375 374.999991" height="500" preserveAspectRatio="xMidYMid meet" version="1.0"><defs><clipPath id="8790130e9d"><path d="M 30.414062 30.414062 L 334.164062 30.414062 L 334.164062 334.164062 L 30.414062 334.164062 Z M 30.414062 30.414062 " clip-rule="nonzero"/></clipPath></defs><path fill="#ffffff" d="M 244.097656 157.585938 L 252.164062 157.585938 L 252.164062 164.421875 L 244.097656 164.421875 Z M 244.097656 157.585938 " fill-opacity="1" fill-rule="nonzero"/><path fill="#ffffff" d="M 240.179688 168.570312 L 256.074219 168.570312 L 256.074219 231.742188 L 240.179688 231.742188 Z M 240.179688 168.570312 " fill-opacity="1" fill-rule="nonzero"/><path fill="#ffffff" d="M 232.859375 235.890625 L 263.402344 235.890625 L 263.402344 243.566406 L 232.859375 243.566406 Z M 232.859375 235.890625 " fill-opacity="1" fill-rule="nonzero"/><path fill="#ffffff" d="M 244.222656 247.707031 L 252.019531 247.707031 L 252.019531 258.144531 L 244.222656 258.144531 Z M 244.222656 247.707031 " fill-opacity="1" fill-rule="nonzero"/><path fill="#ffffff" d="M 183.628906 267.132812 C 177.011719 268.589844 169.910156 269.363281 162.644531 269.363281 C 158.6875 269.363281 154.765625 269.140625 150.925781 268.695312 C 161.726562 262.476562 169.015625 250.816406 169.015625 237.484375 C 169.015625 235.015625 168.769531 232.605469 168.289062 230.28125 C 171.484375 229.722656 174.636719 228.699219 177.738281 227.210938 C 176.765625 229.742188 175.804688 232.941406 175.257812 236.597656 C 174.066406 244.457031 174.6875 255.894531 183.628906 267.132812 Z M 183.628906 267.132812 " fill-opacity="1" fill-rule="nonzero"/><path fill="#ffffff" d="M 250.199219 140.738281 L 250.199219 153.4375 L 246.050781 153.4375 L 246.050781 140.738281 C 246.050781 139.597656 246.980469 138.660156 248.128906 138.660156 C 249.269531 138.671875 250.199219 139.597656 250.199219 140.738281 Z M 250.199219 140.738281 " fill-opacity="1" fill-rule="nonzero"/><path fill="#ffffff" d="M 215.039062 229.3125 C 212.730469 233.832031 208.390625 236.796875 204.5625 239.410156 C 200.375 242.269531 196.421875 244.972656 196.25 249.238281 C 196.113281 252.464844 198.195312 255.882812 202.917969 260.105469 C 198.546875 262.527344 193.539062 264.515625 188.097656 266.03125 C 180.730469 257.585938 177.78125 247.953125 179.324219 237.367188 C 180.453125 229.609375 183.726562 224.011719 184.191406 223.257812 C 184.210938 223.230469 184.222656 223.214844 184.226562 223.195312 C 184.234375 223.183594 184.246094 223.175781 184.246094 223.171875 C 184.277344 223.128906 184.304688 223.082031 184.320312 223.035156 C 184.332031 223.015625 184.339844 223.003906 184.351562 222.984375 L 184.359375 222.964844 L 207.863281 176.226562 C 208.375 175.203125 207.976562 173.96875 206.960938 173.449219 C 175.679688 157.351562 164.660156 131.277344 164.554688 131.011719 C 164.117188 129.949219 162.910156 129.441406 161.851562 129.882812 C 161.316406 130.097656 160.933594 130.515625 160.726562 130.996094 C 160.722656 131.003906 160.722656 131.003906 160.722656 131.011719 C 160.609375 131.269531 149.59375 157.34375 118.308594 173.449219 C 117.296875 173.96875 116.894531 175.207031 117.402344 176.226562 L 130.167969 201.605469 C 119.902344 202.417969 110.839844 207.542969 104.792969 215.171875 C 99.242188 194.976562 100.890625 169.882812 109.488281 145.554688 C 117.539062 122.753906 130.59375 103.882812 142.734375 97.472656 C 150.121094 93.574219 156.257812 94.765625 160.988281 101 C 161.378906 101.523438 161.992188 101.824219 162.644531 101.824219 C 163.292969 101.824219 163.902344 101.523438 164.292969 101 C 169.425781 94.226562 176.1875 93.394531 184.390625 98.539062 C 197.371094 106.679688 210.914062 128.445312 218.113281 152.699219 C 223.050781 169.371094 229.226562 201.488281 215.039062 229.3125 Z M 215.039062 229.3125 " fill-opacity="1" fill-rule="nonzero"/><path fill="#ffffff" d="M 203.253906 176.167969 L 180.90625 220.605469 C 176.460938 223.597656 171.867188 225.496094 167.21875 226.246094 C 162.667969 212.421875 149.9375 202.261719 134.777344 201.53125 L 122.027344 176.167969 C 138.082031 167.507812 148.644531 156.445312 154.746094 148.554688 C 158.539062 143.648438 161.09375 139.390625 162.648438 136.507812 C 164.199219 139.390625 166.753906 143.648438 170.546875 148.554688 C 176.640625 156.4375 187.199219 167.507812 203.253906 176.167969 Z M 203.253906 176.167969 " fill-opacity="1" fill-rule="nonzero"/><path fill="#ffffff" d="M 164.863281 237.476562 C 164.863281 251.5625 155.675781 263.539062 142.972656 267.730469 C 139.84375 268.765625 136.496094 269.320312 133.023438 269.320312 C 129.515625 269.320312 126.136719 268.75 122.984375 267.703125 L 142.800781 247.886719 C 143.613281 247.074219 143.613281 245.765625 142.800781 244.953125 L 140.890625 243.042969 L 154.957031 228.984375 C 155.484375 228.457031 155.6875 227.6875 155.488281 226.96875 C 155.296875 226.25 154.726562 225.695312 154.007812 225.511719 L 134.65625 220.5625 C 133.949219 220.378906 133.199219 220.585938 132.675781 221.105469 L 125.816406 227.96875 L 123.90625 226.058594 C 123.515625 225.667969 122.988281 225.453125 122.4375 225.453125 C 121.890625 225.453125 121.363281 225.667969 120.972656 226.058594 L 102.066406 244.960938 C 101.492188 242.5625 101.179688 240.054688 101.179688 237.488281 C 101.179688 231.421875 102.886719 225.742188 105.84375 220.921875 C 111.445312 211.765625 121.53125 205.644531 133.023438 205.644531 C 133.179688 205.644531 133.335938 205.644531 133.488281 205.652344 C 147.890625 205.855469 160.003906 215.667969 163.710938 228.953125 C 164.460938 231.664062 164.863281 234.519531 164.863281 237.476562 Z M 164.863281 237.476562 " fill-opacity="1" fill-rule="nonzero"/><path fill="#ffffff" d="M 149.453125 228.613281 L 137.964844 240.105469 L 128.742188 230.886719 L 134.765625 224.863281 Z M 149.453125 228.613281 " fill-opacity="1" fill-rule="nonzero"/><path fill="#ffffff" d="M 138.40625 246.410156 L 118.839844 265.980469 C 111.910156 262.523438 106.414062 256.613281 103.492188 249.386719 L 122.4375 230.441406 Z M 138.40625 246.410156 " fill-opacity="1" fill-rule="nonzero"/><g clip-path="url(#8790130e9d)"><path fill="#ffffff" d="M 182.289062 334.164062 C 161.789062 334.164062 141.894531 330.144531 123.167969 322.230469 C 105.085938 314.582031 88.839844 303.632812 74.890625 289.683594 C 60.941406 275.738281 49.996094 259.496094 42.347656 241.40625 C 34.429688 222.679688 30.414062 202.789062 30.414062 182.289062 C 30.414062 161.789062 34.429688 141.894531 42.347656 123.167969 C 49.996094 105.085938 60.941406 88.839844 74.890625 74.890625 C 88.839844 60.941406 105.078125 49.996094 123.167969 42.347656 C 141.894531 34.429688 161.789062 30.414062 182.289062 30.414062 C 202.789062 30.414062 222.679688 34.429688 241.40625 42.347656 C 259.488281 49.996094 275.738281 60.941406 289.683594 74.890625 C 303.632812 88.839844 314.582031 105.078125 322.230469 123.167969 C 330.152344 141.894531 334.164062 161.78125 334.164062 182.289062 C 334.164062 202.789062 330.144531 222.679688 322.230469 241.40625 C 314.582031 259.488281 303.632812 275.738281 289.683594 289.683594 C 275.738281 303.632812 259.496094 314.582031 241.40625 322.230469 C 222.679688 330.144531 202.789062 334.164062 182.289062 334.164062 Z M 182.289062 34.410156 C 100.746094 34.410156 34.410156 100.746094 34.410156 182.289062 C 34.410156 263.828125 100.746094 330.164062 182.289062 330.164062 C 263.828125 330.164062 330.164062 263.828125 330.164062 182.289062 C 330.164062 100.746094 263.828125 34.410156 182.289062 34.410156 Z M 182.289062 34.410156 " fill-opacity="1" fill-rule="nonzero"/></g></svg>